<svg width="50" height="50" viewBox="0 0 50 50" fill="none" xmlns="http://www.w3.org/2000/svg">
<circle cx="25" cy="25" r="24.5" stroke="#FEBD11"/>
<path fill-rule="evenodd" clip-rule="evenodd" d="M15.6512 18.0341C16.3234 18.0341 16.8683 18.4895 16.8683 19.0512V36.3416H37.5587C38.2309 36.3416 38.7758 36.797 38.7758 37.3587C38.7758 37.9204 38.2309 38.3758 37.5587 38.3758H15.6512C14.979 38.3758 14.4341 37.9204 14.4341 37.3587V19.0512C14.4341 18.4895 14.979 18.0341 15.6512 18.0341Z" fill="#FEBD11"/>
<path fill-rule="evenodd" clip-rule="evenodd" d="M20.5195 30.2392C21.1917 30.2392 21.7366 30.6945 21.7366 31.2563V33.2904C21.7366 33.8522 21.1917 34.3075 20.5195 34.3075C19.8474 34.3075 19.3025 33.8522 19.3025 33.2904V31.2563C19.3025 30.6945 19.8474 30.2392 20.5195 30.2392Z" fill="#FEBD11"/>
<path fill-rule="evenodd" clip-rule="evenodd" d="M30.2562 23.1196C30.9284 23.1196 31.4733 23.5749 31.4733 24.1367V33.2904C31.4733 33.8521 30.9284 34.3075 30.2562 34.3075C29.584 34.3075 29.0391 33.8521 29.0391 33.2904V24.1367C29.0391 23.5749 29.584 23.1196 30.2562 23.1196Z" fill="#FEBD11"/>
<path fill-rule="evenodd" clip-rule="evenodd" d="M35.1245 18.0341C35.7967 18.0341 36.3416 18.4895 36.3416 19.0512V33.2904C36.3416 33.8521 35.7967 34.3074 35.1245 34.3074C34.4523 34.3074 33.9074 33.8521 33.9074 33.2904V19.0512C33.9074 18.4895 34.4523 18.0341 35.1245 18.0341Z" fill="#FEBD11"/>
<path fill-rule="evenodd" clip-rule="evenodd" d="M25.3879 27.1879C26.0601 27.1879 26.605 27.6433 26.605 28.205V33.2904C26.605 33.8522 26.0601 34.3075 25.3879 34.3075C24.7157 34.3075 24.1708 33.8522 24.1708 33.2904V28.205C24.1708 27.6433 24.7157 27.1879 25.3879 27.1879Z" fill="#FEBD11"/>
<path fill-rule="evenodd" clip-rule="evenodd" d="M34.0001 13.3333C34.3682 13.6095 34.4428 14.1318 34.1667 14.5L29.1667 21.1667C28.9013 21.5205 28.4058 21.6053 28.0378 21.36L23.6937 18.464L19.1667 24.5C18.8906 24.8682 18.3682 24.9428 18 24.6667C17.6318 24.3905 17.5572 23.8682 17.8334 23.5L22.8334 16.8333C23.0987 16.4795 23.5943 16.3946 23.9623 16.64L28.3064 19.536L32.8334 13.5C33.1095 13.1318 33.6318 13.0572 34.0001 13.3333Z" fill="#002E54"/>
</svg>
