<svg width="50" height="50" viewBox="0 0 50 50" fill="none" xmlns="http://www.w3.org/2000/svg">
<circle cx="25" cy="25" r="24.5" stroke="#FEBD11"/>
<path d="M34.7331 35.4602C34.7331 35.4602 38.4391 33.7322 38.9016 31.7347C39.358 29.7625 38.0192 28.7363 36.6256 28.7363C36.2547 28.7167 35.8841 28.7795 35.5516 28.9186C35.2192 29.0575 34.9367 29.2677 34.7331 29.5276C34.5295 29.2677 34.247 29.0575 33.9146 28.9186C33.5821 28.7795 33.2115 28.7167 32.8405 28.7363C31.4518 28.7363 30.1069 29.7625 30.5646 31.7347C31.0271 33.7312 34.7331 35.4602 34.7331 35.4602Z" fill="#002E54"/>
<path d="M13.6545 14.787L12.3656 19.0964C12.1823 19.7003 12.1674 20.3313 12.3221 20.9407C12.4768 21.5501 12.7969 22.1217 13.2577 22.6114C13.3726 22.7187 13.4945 22.8206 13.6228 22.9166V35.3758C13.6228 35.6456 13.7511 35.9043 13.9793 36.095C14.2076 36.2857 14.5171 36.3929 14.8399 36.3929H28.4043C28.7271 36.3929 29.0367 36.2857 29.2649 36.095C29.4931 35.9043 29.6214 35.6456 29.6214 35.3758C29.6214 35.1061 29.4931 34.8474 29.2649 34.6567C29.0367 34.466 28.7271 34.3588 28.4043 34.3588H16.0521V24.0862C16.9158 24.2517 17.8172 24.2147 18.6573 23.9794C19.4974 23.7442 20.2435 23.3197 20.8134 22.7528C20.8499 22.7884 20.8754 22.8301 20.9132 22.8647C21.373 23.2813 21.9309 23.6139 22.5519 23.8416C23.1729 24.0693 23.8437 24.1872 24.5218 24.1879H24.6228C25.3008 24.1874 25.9713 24.0696 26.592 23.8421C27.2128 23.6145 27.7706 23.2821 28.2303 22.8657C28.268 22.8311 28.2936 22.7884 28.3301 22.7528C28.8999 23.3198 29.646 23.7444 30.4861 23.9796C31.3262 24.2149 32.2277 24.2518 33.0913 24.0862V26.2221C33.0913 26.4918 33.2196 26.7506 33.4478 26.9413C33.676 27.132 33.9856 27.2392 34.3084 27.2392C34.6312 27.2392 34.9408 27.132 35.169 26.9413C35.3972 26.7506 35.5255 26.4918 35.5255 26.2221V22.9186C35.6539 22.8226 35.7757 22.7207 35.8906 22.6135C36.3514 22.1238 36.6715 21.5522 36.8262 20.9427C36.9809 20.3333 36.966 19.7023 36.7827 19.0984L35.489 14.787C35.423 14.5671 35.2711 14.3719 35.0571 14.2324C34.8433 14.0929 34.5797 14.0171 34.3084 14.0171H14.8351C14.5637 14.0171 14.3002 14.0929 14.0863 14.2324C13.8724 14.3719 13.7204 14.5671 13.6545 14.787ZM33.3579 16.0513L34.4167 19.5897C34.508 19.8939 34.5149 20.2115 34.4373 20.5183C34.3595 20.8252 34.1991 21.1131 33.9681 21.3604C33.7372 21.6076 33.4418 21.8075 33.1045 21.945C32.7672 22.0825 32.3968 22.1539 32.0215 22.1538C31.4031 22.151 30.8082 21.9556 30.3531 21.6057C29.8979 21.2558 29.6154 20.7767 29.5606 20.262L29.1407 16.0513H33.3579ZM22.4406 16.0513H26.7004L27.0862 19.9162C27.1147 20.2009 27.0721 20.4876 26.9612 20.7579C26.8504 21.0282 26.6735 21.2764 26.442 21.4867C26.2105 21.697 25.9293 21.8648 25.6162 21.9797C25.3031 22.0945 24.9648 22.1538 24.6228 22.1538H24.5218C24.1807 22.1539 23.8433 22.0949 23.5308 21.9805C23.2183 21.8661 22.9376 21.6989 22.7063 21.4893C22.4751 21.2797 22.2983 21.0324 22.1873 20.7628C22.0762 20.4933 22.0331 20.2074 22.0609 19.9233L22.4406 16.0513ZM20.0064 16.0513L19.9918 16.1875L19.6365 19.7473L19.5866 20.2559C19.5334 20.7721 19.2512 21.253 18.7954 21.6041C18.3396 21.9553 17.7431 22.1513 17.1232 22.1538C16.7479 22.1538 16.3774 22.0824 16.0401 21.945C15.7028 21.8075 15.4073 21.6076 15.1763 21.3604C14.9453 21.1132 14.7847 20.8252 14.7068 20.5184C14.6289 20.2116 14.6357 19.894 14.7267 19.5897L15.7856 16.0513H20.0064Z" fill="#FEBD11"/>
<path d="M13.7 14.4C13.8889 14.1482 14.1852 14 14.5 14H34.5C34.8148 14 35.1111 14.1482 35.3 14.4L36.5 16L24.5 16.5L12.5 16L13.7 14.4Z" fill="#002E54"/>
</svg>
