<svg width="50" height="50" viewBox="0 0 50 50" fill="none" xmlns="http://www.w3.org/2000/svg">
<circle cx="25" cy="25" r="24.5" stroke="#FEBD11"/>
<g clip-path="url(#clip0)">
<path fill-rule="evenodd" clip-rule="evenodd" d="M33.7313 13H15.2621C12.9082 13 11 15.0198 11 17.5112V31.045C11 33.5365 12.9082 35.5562 15.2621 35.5562H33.7313C36.0852 35.5562 37.9935 33.5365 37.9935 31.045V17.5112C37.9935 15.0198 36.0853 13 33.7313 13ZM12.4207 17.5113C12.4207 15.8503 13.6928 14.5038 15.2621 14.5038H33.7313C35.3006 14.5038 36.5727 15.8503 36.5727 17.5113V19.015H24.4967H12.4207V17.5113ZM12.4207 31.045C12.4207 32.706 13.6928 34.0525 15.2621 34.0525H33.7313C35.3005 34.0525 36.5727 32.706 36.5727 31.045V23.5262H12.4207L12.4207 31.045ZM20.9449 29.5412H15.2621V31.045H20.9449V29.5412ZM23.7864 29.5412H28.0485V31.045H23.7864V29.5412ZM12.4207 22.0225V20.5187H24.4967H36.5727V22.0225H12.4207Z" fill="#FEBD11"/>
<path d="M12.5 19H36.5V20.5H12.5V19Z" fill="#002E54"/>
<path d="M12.5 22H36.5V23.5H12.5V22Z" fill="#002E54"/>
</g>
<path d="M38.712 33.7074C38.712 34.9212 37.7281 35.9051 36.5143 35.9051C35.3005 35.9051 34.3166 34.9212 34.3166 33.7074C34.3166 32.4936 35.3005 31.5096 36.5143 31.5096C37.7281 31.5096 38.712 32.4936 38.712 33.7074Z" fill="#002E54" stroke="#002E54" stroke-width="3"/>
<path d="M38.9143 32.2654L35.8476 35.926L34.3143 34.0957L34.5333 33.8342L35.8476 35.4031L38.6952 32.004L38.9143 32.2654Z" fill="#F2F2F2"/>
<defs>
<clipPath id="clip0">
<rect width="26.9935" height="22.5562" fill="white" transform="translate(11 13)"/>
</clipPath>
</defs>
</svg>
