<svg width="100" height="84" viewBox="0 0 100 84" fill="none" xmlns="http://www.w3.org/2000/svg">
<path d="M81.2499 76.8924C81.2499 76.8924 93.9374 70.9765 95.5208 64.1379C97.0833 57.3864 92.4999 53.8731 87.7291 53.8731C86.4591 53.8059 85.1904 54.0211 84.052 54.4971C82.9141 54.9727 81.947 55.6924 81.2499 56.5821C80.5529 55.6924 79.5858 54.9727 78.4479 54.4971C77.3095 54.0211 76.0408 53.8059 74.7708 53.8731C70.0166 53.8731 65.4124 57.3864 66.9791 64.1379C68.5624 70.973 81.2499 76.8924 81.2499 76.8924Z" fill="white"/>
<path d="M9.08771 6.11775L4.67521 20.8709C4.04777 22.9382 3.99685 25.0984 4.52638 27.1848C5.05592 29.2712 6.15175 31.2281 7.72938 32.9046C8.12271 33.2717 8.54 33.6205 8.97938 33.9491V76.6033C8.97938 77.5267 9.41838 78.4125 10.1998 79.0654C10.9812 79.7183 12.041 80.0853 13.146 80.0853H59.5836C60.6886 80.0853 61.7486 79.7183 62.5298 79.0654C63.3111 78.4125 63.7502 77.5267 63.7502 76.6033C63.7502 75.6799 63.3111 74.7941 62.5298 74.1412C61.7486 73.4883 60.6886 73.1213 59.5836 73.1213H17.296V37.9534C20.2526 38.5199 23.3388 38.3932 26.2148 37.5878C29.0908 36.7824 31.645 35.3294 33.596 33.3885C33.721 33.5104 33.8086 33.6532 33.9377 33.7716C35.5118 35.1978 37.4219 36.3364 39.548 37.116C41.674 37.8956 43.9702 38.2992 46.2919 38.3016H46.6377C48.9585 38.2999 51.254 37.8967 53.379 37.1177C55.5044 36.3385 57.414 35.2006 58.9877 33.775C59.1169 33.6567 59.2044 33.5104 59.3294 33.3885C61.2802 35.3297 63.8344 36.7831 66.7106 37.5885C69.5865 38.3939 72.6727 38.5203 75.6294 37.9534V45.2655C75.6294 46.189 76.0686 47.0748 76.8498 47.7276C77.6311 48.3805 78.6911 48.7475 79.7961 48.7475C80.9011 48.7475 81.9611 48.3805 82.7423 47.7276C83.5236 47.0748 83.9627 46.189 83.9627 45.2655V33.9561C84.4023 33.6274 84.8194 33.2787 85.2127 32.9115C86.7902 31.235 87.8861 29.2781 88.4156 27.1917C88.9452 25.1053 88.8944 22.9452 88.2669 20.8778L83.8377 6.11775C83.6119 5.36478 83.0919 4.69645 82.3594 4.2189C81.6273 3.74131 80.7248 3.48194 79.7961 3.4819H13.1294C12.2005 3.48194 11.2983 3.74131 10.566 4.2189C9.83375 4.69645 9.31346 5.36478 9.08771 6.11775ZM76.5419 10.4458L80.1669 22.5596C80.4794 23.6011 80.5031 24.6884 80.2373 25.7388C79.9711 26.7892 79.4219 27.7751 78.6311 28.6215C77.8406 29.4678 76.8294 30.1524 75.6744 30.623C74.5198 31.0937 73.2519 31.3381 71.9669 31.3377C69.8498 31.3282 67.8131 30.6591 66.2552 29.4614C64.6969 28.2637 63.7298 26.6234 63.5419 24.8612L62.1044 10.4458H76.5419ZM39.1669 10.4458H53.7502L55.0711 23.6773C55.1686 24.6522 55.0227 25.6334 54.6431 26.5589C54.2635 27.4843 53.6581 28.3339 52.8656 29.0538C52.0731 29.7738 51.1102 30.3485 50.0386 30.7416C48.9665 31.1347 47.8086 31.3377 46.6377 31.3377H46.2919C45.124 31.338 43.969 31.1361 42.899 30.7445C41.8294 30.353 40.8682 29.7804 40.0765 29.0629C39.2849 28.3454 38.6798 27.4986 38.2995 26.5758C37.9192 25.653 37.7719 24.6744 37.8669 23.7017L39.1669 10.4458ZM30.8335 10.4458L30.7835 10.9124L29.5669 23.0993L29.396 24.8403C29.2141 26.6074 28.248 28.2538 26.6875 29.456C25.1271 30.6583 23.0851 31.3294 20.9627 31.3377C19.6778 31.3379 18.4097 31.0935 17.2548 30.6229C16.0999 30.1522 15.0885 29.4677 14.2976 28.6215C13.5067 27.7753 12.957 26.7895 12.6903 25.7391C12.4237 24.6887 12.447 23.6014 12.7585 22.5596L16.3835 10.4458H30.8335Z" fill="white"/>
<path d="M9.97054 3.8234C10.1594 3.5716 10.4558 3.4234 10.7705 3.4234H81.6637C81.9785 3.4234 82.2749 3.5716 82.4637 3.8234L87.299 10.2704L46.2171 11.9821L5.13531 10.2704L9.97054 3.8234Z" fill="white"/>
</svg>
