<svg width="26" height="22" viewBox="0 0 26 22" fill="none" xmlns="http://www.w3.org/2000/svg">
<path d="M26 2.58478C25.0433 3.00901 24.0153 3.29572 22.9363 3.4247C24.0377 2.76454 24.8834 1.71916 25.2816 0.473598C24.2346 1.09494 23.089 1.53272 21.8944 1.76801C20.9214 0.731364 19.5351 0.0834961 18.0008 0.0834961C15.0549 0.0834961 12.6665 2.47184 12.6665 5.41756C12.6665 5.83569 12.7137 6.24276 12.8046 6.63326C8.37139 6.41074 4.44092 4.28717 1.80995 1.05992C1.35088 1.84774 1.08784 2.76414 1.08784 3.74158C1.08784 5.59225 2.02962 7.22487 3.46084 8.18148C2.61376 8.15495 1.78532 7.92617 1.04467 7.51422C1.04437 7.53656 1.04437 7.55891 1.04437 7.58135C1.04437 10.1658 2.88305 12.3218 5.32319 12.8118C4.5377 13.0254 3.71376 13.0567 2.91434 12.9032C3.59308 15.0224 5.56309 16.5646 7.8972 16.6077C6.07161 18.0383 3.77152 18.8912 1.27248 18.8912C0.841852 18.8912 0.41732 18.8659 0 18.8166C2.36062 20.3301 5.16445 21.2132 8.1768 21.2132C17.9884 21.2132 23.3537 13.085 23.3537 6.03618C23.3537 5.80482 23.3486 5.57478 23.3383 5.34606C24.3825 4.59113 25.2839 3.65608 26 2.58478Z" fill="#55ACEE"/>
</svg>
